HIERARCHY
ROOT Hips
{
	OFFSET 0.000000 0.000000 0.000000 
	CHANNELS 6 Xposition Yposition Zposition Zrotation Yrotation Xrotation
	JOINT LeftUpLeg
	{
		OFFSET 1.363060 -1.794630 0.839290 
		CHANNELS 3 Zrotation Yrotation Xrotation
		JOINT LeftLeg
		{
			OFFSET 2.448110 -6.726130 0.000000 
			CHANNELS 3 Zrotation Yrotation Xrotation
			JOINT LeftFoot
			{
				OFFSET 2.562200 -7.039590 0.000000 
				CHANNELS 3 Zrotation Yrotation Xrotation
				JOINT LeftToeBase
				{
					OFFSET 0.157640 -0.433110 2.322550 
					CHANNELS 3 Zrotation Yrotation Xrotation
					End Site
					{
						OFFSET 0.000000 0.000000 0.000000 
					}
				}
			}
		}
	}
	JOINT RightUpLeg
	{
		OFFSET -1.305520 -1.794630 0.839290 
		CHANNELS 3 Zrotation Yrotation Xrotation
		JOINT RightLeg
		{
			OFFSET -2.542530 -6.985550 0.000000 
			CHANNELS 3 Zrotation Yrotation Xrotation
			JOINT RightFoot
			{
				OFFSET -2.568260 -7.056230 0.000000 
				CHANNELS 3 Zrotation Yrotation Xrotation
				JOINT RightToeBase
				{
					OFFSET -0.164730 -0.452590 2.363150 
					CHANNELS 3 Zrotation Yrotation Xrotation
					End Site
					{
						OFFSET 0.000000 0.000000 0.000000 
					}
				}
			}
		}
	}
	JOINT Spine
	{
		OFFSET 0.028270 2.035590 -0.193380 
		CHANNELS 3 Zrotation Yrotation Xrotation
		JOINT Spine1
		{
			OFFSET 0.056720 2.048850 -0.042750 
			CHANNELS 3 Zrotation Yrotation Xrotation
			JOINT Neck1
			{
				OFFSET -0.054170 1.746240 0.172020 
				CHANNELS 3 Zrotation Yrotation Xrotation
				JOINT Head
				{
					OFFSET 0.104070 1.761360 -0.123970 
					CHANNELS 3 Zrotation Yrotation Xrotation
					End Site
					{
						OFFSET 0.000000 0.000000 0.000000 
					}
				}
			}
			JOINT LeftArm
			{
				OFFSET 3.362410 1.200890 -0.311210 
				CHANNELS 3 Zrotation Yrotation Xrotation
				JOINT LeftForeArm
				{
					OFFSET 4.983000 -0.000000 -0.000000 
					CHANNELS 3 Zrotation Yrotation Xrotation
					JOINT LeftHand
					{
						OFFSET 3.483560 -0.000000 -0.000000 
						CHANNELS 3 Zrotation Yrotation Xrotation
						JOINT LeftHandIndex1
						{
							OFFSET 0.715260 -0.000000 -0.000000 
							CHANNELS 3 Zrotation Yrotation Xrotation
							End Site
							{
								OFFSET 0.000000 0.000000 0.000000 
							}
						}
					}
				}
			}
			JOINT RightArm
			{
				OFFSET -3.136600 1.374050 -0.404650 
				CHANNELS 3 Zrotation Yrotation Xrotation
				JOINT RightForeArm
				{
					OFFSET -5.241900 -0.000000 -0.000000 
					CHANNELS 3 Zrotation Yrotation Xrotation
					JOINT RightHand
					{
						OFFSET -3.444170 -0.000000 -0.000000 
						CHANNELS 3 Zrotation Yrotation Xrotation
						JOINT RightHandIndex1
						{
							OFFSET -0.622530 -0.000000 -0.000000 
							CHANNELS 3 Zrotation Yrotation Xrotation
							End Site
							{
								OFFSET 0.000000 0.000000 0.000000 
							}
						}
					}
				}
			}
		}
	}
}
MOTION
Frames: 16
Frame Time: 0.041667
8.254593 16.031600 17.549073 -176.089259 -36.375844 -141.253669 7.835095 -19.723879 -83.842592 7.860609 18.673502 54.260682 0.346323 -6.862435 4.881648 0.861200 5.917800 16.546000 18.420308 17.407595 -68.848865 -9.095075 -20.906182 58.352079 -4.260200 15.435953 -19.000333 -0.874500 -5.962000 16.674300 2.816196 -5.647215 1.151259 12.890336 -6.323708 10.602445 20.037504 3.085230 -4.662680 14.495000 2.623100 -8.008300 -83.739118 -46.012598 -1.359648 20.016871 -29.133972 -5.641023 -0.019129 -0.202757 13.538202 -7.125000 0.000000 0.000000 77.079352 34.669066 41.855556 -44.419790 48.285662 -17.526393 0.671728 -1.088970 7.027968 7.125000 0.000000 0.000000 
8.168552 16.028066 17.457068 -176.271061 -36.193265 -141.267789 7.542493 -20.180301 -83.004794 7.746568 18.648241 53.938676 0.341992 -5.255263 5.196943 2.722100 10.231000 29.727900 18.416650 17.129814 -68.416236 -9.254222 -20.935767 58.726681 -4.331500 16.398606 -18.728149 -1.169700 -6.865300 19.317000 2.772129 -5.738405 1.154631 12.535643 -6.298621 10.568058 20.275507 3.278633 -4.677343 14.558000 2.660700 -8.082700 -83.690779 -46.081956 -1.085968 19.841253 -28.919419 -5.544251 -0.018528 -0.199822 13.604366 -7.125000 0.000000 0.000000 77.247784 34.349398 41.593740 -44.158601 48.174269 -17.367118 0.688185 -1.100286 7.387371 7.125000 0.000000 0.000000 
8.086267 16.024973 17.364621 -176.332145 -35.990461 -141.370212 7.547453 -20.515757 -82.090072 7.786640 18.719346 54.066404 0.349730 -6.210192 0.786919 0.646200 5.142300 14.315000 18.468719 16.950768 -68.119047 -9.490580 -21.017871 59.333772 -4.434837 16.771953 -19.199423 -1.132800 -6.759900 19.005900 2.785667 -5.654090 1.120728 12.630249 -6.243475 10.309448 20.343144 3.397683 -4.575691 14.498400 2.670400 -8.081500 -84.029039 -46.147774 -0.632369 19.640209 -28.651071 -5.436090 -0.023314 -0.190613 13.793845 -7.125000 0.000000 0.000000 77.198681 33.787867 41.014970 -43.885990 48.044003 -17.213901 0.689145 -1.077992 7.798534 7.125000 0.000000 0.000000 
8.010609 16.026078 17.270407 -176.505553 -35.747834 -141.358118 7.514934 -20.774564 -81.563157 7.897074 18.796161 54.431172 0.356490 -6.991886 1.202730 1.265600 7.130900 20.103700 18.390338 16.821477 -68.035749 -9.819684 -21.149374 60.251397 -4.423126 17.462432 -18.764931 -1.316300 -7.266700 20.507900 2.767838 -5.591023 1.130108 12.557763 -6.202149 10.268086 20.419550 3.411019 -4.604465 14.412400 2.613600 -8.127700 -84.012276 -46.514295 -0.448675 19.302494 -28.218041 -5.260416 -0.031060 -0.183063 14.099541 -7.125000 0.000000 0.000000 77.420225 33.381242 40.399539 -43.490170 47.859242 -16.982486 0.698523 -1.056598 7.983038 7.125000 0.000000 0.000000 
7.937049 16.035466 17.172438 -176.908823 -35.450855 -141.380509 6.963003 -20.964245 -80.967207 7.992860 18.878203 54.767837 0.362569 -6.930851 0.502470 0.746000 5.517000 15.389100 18.186712 16.578618 -67.887623 -10.254939 -21.317014 61.499246 -4.371061 17.794207 -18.335801 -1.247500 -7.081500 19.957100 2.742869 -5.539536 1.116983 12.618117 -6.182777 10.056682 20.636842 3.399385 -4.664948 14.436100 2.544400 -8.149200 -83.856951 -46.872040 -0.170117 18.928501 -27.726284 -5.068652 -0.039242 -0.165546 14.233838 -7.125000 0.000000 0.000000 77.526021 32.860965 39.842789 -43.087135 47.662351 -16.741566 0.685122 -1.082756 7.897045 7.125000 0.000000 0.000000 
7.858519 16.041651 17.079550 -177.324272 -35.315579 -141.293567 6.435871 -21.260452 -80.440132 8.050714 18.934550 54.978138 0.372168 -7.301335 0.222432 0.907200 6.069600 16.986600 17.973814 16.150747 -68.168097 -10.811408 -21.527269 63.154641 -4.196723 18.028713 -17.223874 -1.074900 -6.590300 18.507200 2.780310 -5.309652 1.153689 12.946420 -6.166788 9.989589 20.477980 3.260080 -4.673648 14.076200 2.402800 -7.985400 -83.978808 -47.635607 0.625947 18.533886 -27.198836 -4.869612 -0.046558 -0.141566 14.224719 -7.125000 0.000000 0.000000 77.277604 32.540701 38.821163 -42.526496 47.347614 -16.425109 0.655193 -1.103782 7.873637 7.125000 0.000000 0.000000 
7.775571 16.053138 16.987214 -177.816439 -35.190416 -141.195451 5.925916 -21.758228 -79.720562 8.073305 18.979051 55.078917 0.388286 -7.657778 -0.280379 1.040200 6.486400 18.202500 17.569290 15.547196 -68.818848 -11.482392 -21.765681 65.177009 -3.905297 18.393387 -15.289012 -0.779800 -5.637700 15.736900 2.776874 -5.299848 1.150288 12.957368 -6.170299 9.842109 20.452835 3.227778 -4.512585 13.863200 2.324000 -7.807900 -83.630664 -47.805661 1.263546 18.321546 -26.928022 -4.767207 -0.047106 -0.134928 13.906833 -7.125000 0.000000 0.000000 77.402232 32.081752 38.065493 -41.952253 47.042767 -16.082024 0.644541 -1.119496 8.000193 7.125000 0.000000 0.000000 
7.690083 16.072025 16.893662 -178.041316 -34.826481 -141.139645 5.533746 -22.006035 -78.996885 8.097044 19.010060 55.169062 0.410366 -7.850948 -1.022564 1.057200 6.537700 18.352700 16.988285 15.281371 -69.833085 -12.217071 -22.035101 67.442058 -3.475740 19.117486 -12.257616 -0.705100 -5.367100 14.958700 2.717782 -5.344152 1.113537 12.625040 -6.109784 9.684577 20.321686 3.304344 -4.247899 13.618000 2.306800 -7.681300 -82.832784 -47.248963 2.057878 18.390926 -27.055055 -4.808614 -0.044053 -0.152625 13.037908 -7.125000 0.000000 0.000000 77.740979 31.416995 37.570395 -41.324936 46.729493 -15.692155 0.641213 -1.146847 7.865795 7.125000 0.000000 0.000000 
7.608129 16.092568 16.805855 -178.061783 -34.402625 -141.085764 5.360386 -22.146380 -78.423612 8.131307 19.039788 55.282350 0.434671 -8.044126 -1.723380 1.184500 6.907000 19.440200 16.268540 15.188140 -71.257576 -12.946703 -22.300782 69.787459 -2.893977 19.887022 -7.915435 -0.857000 -5.903700 16.505200 2.681055 -5.268052 1.109463 12.509143 -5.948362 9.500239 22.479914 4.042461 -6.762788 15.662800 2.601000 -9.574800 -82.302176 -47.303350 2.628369 18.200172 -26.819776 -4.717242 -0.045734 -0.159001 12.612078 -7.125000 0.000000 0.000000 77.927030 30.764641 36.998880 -40.525784 46.295598 -15.194062 0.637626 -1.169569 7.664670 7.125000 0.000000 0.000000 
7.524187 16.103282 16.728098 -178.362659 -34.038779 -140.660660 5.112356 -22.512881 -78.220021 8.152587 19.077819 55.367604 0.459612 -8.084568 -2.463495 1.229900 7.033200 19.813800 15.192940 14.808782 -73.197174 -13.649689 -22.529726 72.019816 -2.376099 20.298614 -3.731657 -0.591400 -4.923400 13.690100 2.650164 -5.299273 1.041968 12.232221 -5.894190 9.374469 21.074678 3.753818 -5.679371 14.310100 2.449700 -8.788100 -82.220542 -47.986520 2.878064 17.636141 -26.061929 -4.441373 -0.048473 -0.140437 12.804063 -7.125000 0.000000 0.000000 77.905548 30.062338 36.137890 -39.904721 45.956218 -14.838431 0.642973 -1.156345 8.019817 7.125000 0.000000 0.000000 
7.444000 16.114217 16.641726 -178.501908 -33.752646 -140.325488 4.898280 -22.707978 -78.042593 8.182157 19.112181 55.473116 0.486892 -8.033358 -3.237137 1.112000 6.699500 18.828000 14.212339 14.495857 -74.996872 -14.217969 -22.697492 73.810431 -1.990832 20.537239 -0.213363 -2.695500 -10.184900 29.577700 2.663332 -5.194886 0.987840 12.232231 -5.767214 9.152396 21.268755 3.814092 -6.108646 14.497100 2.446900 -9.145000 -82.347390 -48.323286 3.675964 17.394570 -25.721523 -4.323524 -0.054864 -0.134173 12.630132 -7.125000 0.000000 0.000000 77.784375 29.254820 35.043729 -39.403475 45.672056 -14.566803 0.655424 -1.102022 8.540218 7.125000 0.000000 0.000000 
7.348903 16.167785 16.539781 -178.690388 -33.481931 -141.164875 4.024457 -23.090019 -76.212214 8.184818 19.132817 55.511424 0.531822 -8.059111 -4.181873 1.034400 6.469000 18.151300 13.573676 13.696813 -74.961704 -14.588074 -22.713580 74.775990 -1.947720 21.586969 -0.053381 -4.043900 -12.218500 36.509500 2.686536 -5.025044 0.996936 12.319610 -5.680624 8.512558 21.401027 3.904628 -6.630821 14.609900 2.444100 -9.505900 -82.365021 -48.434720 4.933591 17.576369 -25.865469 -4.393976 -0.070471 -0.136654 12.179922 -7.125000 0.000000 0.000000 77.647471 28.570497 33.880708 -38.897527 45.333189 -14.277091 0.651024 -1.059032 8.899042 7.125000 0.000000 0.000000 
7.271146 16.189323 16.439934 -178.970976 -32.966780 -141.216657 3.389683 -23.243652 -75.422961 8.234837 19.170093 55.686364 0.570714 -8.090305 -4.977257 1.011000 6.397500 17.942300 12.525224 13.144165 -75.961745 -14.777957 -22.742545 75.103838 -2.168720 20.546698 -2.447289 -5.695400 -14.126500 43.746800 2.686675 -4.786056 1.006850 12.406509 -5.567198 8.272034 21.434434 3.925067 -7.088636 14.564500 2.383100 -9.798700 -82.496752 -48.949530 6.089145 17.589994 -25.822358 -4.391069 -0.084619 -0.135206 12.214569 -7.125000 0.000000 0.000000 77.584815 27.765966 32.649761 -38.614682 45.171062 -14.153963 0.641473 -1.051197 9.348611 7.125000 0.000000 0.000000 
7.207306 16.175958 16.336773 -178.820497 -32.335342 -140.616084 3.510519 -22.966866 -75.842480 8.344749 19.227951 56.020774 0.602852 -8.155282 -5.629592 1.016300 6.413700 17.989600 11.509937 13.073122 -78.042009 -14.670573 -22.771941 74.688392 -2.327612 18.762474 -4.383554 -8.240200 -16.293100 53.423300 2.684821 -4.375069 1.001163 12.438725 -5.338129 8.378158 21.429867 3.845253 -7.295289 14.430600 2.266700 -9.962000 -82.991187 -50.023516 6.956821 17.204400 -25.282057 -4.203616 -0.087685 -0.111871 13.157845 -7.125000 0.000000 0.000000 77.471114 26.918357 31.505391 -38.141591 44.912330 -13.924940 0.643068 -1.051740 9.659582 7.125000 0.000000 0.000000 
7.143797 16.201251 16.213953 -178.449206 -31.511771 -140.860814 3.159267 -22.360502 -75.106932 8.446836 19.250064 56.316444 0.653389 -8.490919 -6.321157 1.126200 6.740700 18.949300 10.916343 13.037261 -78.796442 -14.185901 -22.694665 73.252497 -2.477225 16.480529 -6.554574 -3.347500 -11.237500 33.085000 2.656942 -3.951455 1.022692 12.446840 -5.141203 8.263243 21.467738 3.819757 -7.319066 14.363200 2.203900 -9.987700 -82.352323 -48.993043 8.695154 18.006262 -26.380184 -4.588549 -0.076284 -0.151662 11.790159 -7.125000 0.000000 0.000000 77.364851 26.401208 30.962619 -37.306165 44.379465 -13.426848 0.645138 -1.048235 9.767282 7.125000 0.000000 0.000000 
7.076202 16.219696 16.099527 -178.483730 -30.905103 -140.714579 2.677789 -22.083378 -74.704641 8.557466 19.294279 56.653362 0.704820 -8.773312 -7.033232 1.298500 7.219500 20.367300 10.264210 12.465296 -79.783904 -13.487772 -22.508806 71.246483 -2.522433 14.188642 -8.244572 -0.042600 -1.331400 3.661200 2.626885 -3.797635 1.031266 12.308982 -5.046527 8.259571 21.410420 3.809152 -7.419246 14.207700 2.138900 -10.026600 -81.805830 -48.740504 9.775661 18.388582 -26.886057 -4.774221 -0.071355 -0.168109 11.116064 -7.125000 0.000000 0.000000 77.216230 26.113531 30.598020 -36.325880 43.734546 -12.841377 0.657239 -1.034761 9.811949 7.125000 0.000000 0.000000 
